<?xml version="1.0" standalone="no"?>
<!DOCTYPE svg PUBLIC "-//W3C//DTD SVG 20010904//EN"
 "http://www.w3.org/TR/2001/REC-SVG-20010904/DTD/svg10.dtd">
<svg version="1.0" xmlns="http://www.w3.org/2000/svg"
 width="860.000000pt" height="560.000000pt" viewBox="0 0 860.000000 560.000000"
 preserveAspectRatio="xMidYMid meet">

<g transform="translate(0.000000,560.000000) scale(0.100000,-0.100000)"
fill="#000000" stroke="none">
<path d="M1752 2988 c3 -2108 4 -2195 22 -2248 28 -85 54 -129 109 -187 58
-62 127 -104 212 -129 56 -17 149 -18 1522 -21 1626 -4 1529 -8 1665 64 119
62 212 189 238 322 12 65 14 1767 2 1775 -5 3 -84 -68 -176 -157 -140 -137
-167 -167 -167 -192 -1 -16 -2 -329 -3 -695 -1 -622 -2 -667 -19 -698 -36 -66
59 -62 -1528 -62 l-1441 0 -33 33 c-24 24 -35 46 -40 78 -3 24 -5 907 -3 1962
l3 1919 37 34 38 34 1447 0 c1129 0 1453 -3 1472 -13 13 -6 34 -25 45 -40 20
-27 21 -41 24 -370 1 -187 4 -342 5 -344 2 -1 81 73 175 165 l173 167 -1 165
c0 202 -11 274 -54 365 -60 127 -158 209 -294 246 -64 18 -141 19 -1749 19
l-1683 0 2 -2192z"/>
<path d="M6228 4583 c-106 -104 -310 -301 -453 -439 -143 -137 -449 -432 -680
-655 -231 -223 -511 -492 -622 -599 -112 -107 -203 -200 -203 -205 0 -12 412
-425 424 -425 4 0 152 141 329 313 177 171 663 642 1080 1046 l758 734 -78 81
c-216 227 -328 336 -344 336 -10 0 -105 -84 -211 -187z"/>
<path d="M4116 2509 c-103 -293 -213 -615 -211 -617 3 -4 627 206 634 214 3 2
-8 17 -25 33 -16 15 -111 108 -211 206 -118 115 -184 173 -187 164z"/>
</g>
</svg>
